<?xml version="1.0" encoding="UTF-8"?>
<svg width="648px" height="238px" viewBox="0 0 648 238" version="1.1" xmlns="http://www.w3.org/2000/svg" xmlns:xlink="http://www.w3.org/1999/xlink">
    <title>编组备份 2</title>
    <g id="页面-1" stroke="none" stroke-width="1" fill="none" fill-rule="evenodd">
        <g id="编组备份-2">
            <rect id="矩形" fill="#FFFFFF" opacity="0" x="0" y="0" width="648" height="238"></rect>
            <text id="Foresight-Ventures" font-family="Verdana-Bold, Verdana" font-size="54" font-weight="bold" line-spacing="55" fill="#FFFFFF">
                <tspan x="270" y="115">Foresight</tspan>
                <tspan x="585.615234" y="120.738281" font-size="48"></tspan>
                <tspan x="270" y="170">Ventures</tspan>
            </text>
            <g id="编组-2" transform="translate(90.000000, 41.000000)" fill-rule="nonzero">
                <path d="M56.2711924,65.3305941 L94.4811924,103.530594 L85.2311924,112.780594 L47.0211924,74.6105941 L8.62119244,113.020594 C22.4509753,139.8674 50.6129452,156.238899 80.7859434,154.972389 C110.958942,153.705879 137.64988,135.031931 149.181192,107.120594 L81.8511924,39.7505941 L56.2711924,65.3305941 Z" id="路径" fill="#FFFFFF"></path>
                <path d="M91.1011924,30.5005941 L81.8511924,21.2605941 L72.6011924,30.5005941 L47.0211924,56.0805941 L37.7811924,65.3305941 L3.28119244,99.8205941 C4.65284161,104.362096 6.44041166,108.767418 8.62119244,112.980594 L47.0211924,74.6105941 L85.2311924,112.820594 L94.4811924,103.570594 L56.2711924,65.3705941 L81.8511924,39.7905941 L149.181192,107.120594 C151.073258,102.54708 152.519952,97.8017914 153.501192,92.9505941 L91.1011924,30.5005941 Z" id="路径"></path>
                <path d="M47.0211924,56.0805941 L72.6011924,30.5005941 L81.8511924,21.2605941 L91.1011924,30.5005941 L153.501192,92.9105941 C159.911302,61.2662267 146.036642,28.9622989 118.673965,11.8234713 C91.3112887,-5.31535635 56.1909233,-3.6998476 30.5172125,15.8786115 C4.84350169,35.4570706 -6.00693171,68.8983329 3.28119244,99.8205941 L37.7811924,65.3305941 L47.0211924,56.0805941 Z" id="路径" fill="#FFFFFF"></path>
            </g>
        </g>
    </g>
</svg>