<svg id="图层_1" data-name="图层 1" xmlns="http://www.w3.org/2000/svg" viewBox="0 0 423.77807 141.40846"><title>LD-logo新</title><path d="M38.94,104.4a27.6,27.6,0,1,1,0-55.2,27.318,27.318,0,0,1,19.3,7.9l4.2-4.3a33.60118,33.60118,0,1,0,.2,47.8l-4.2-4.2A27.88309,27.88309,0,0,1,38.94,104.4Z"/><rect x="218.24004" y="44.1" width="6" height="64.6"/><polygon points="239.64 49.5 262.84 49.5 262.84 108.7 268.84 108.7 268.84 49.5 292.04 49.5 292.04 43.5 239.64 43.5 239.64 49.5"/><polygon points="379.14 102.8 379.14 43.8 373.14 43.8 373.14 108.8 415.94 108.8 415.94 102.8 379.14 102.8"/><path d="M176.34,43.5h-27.3v65.2h6V88.3h21.3a22.4,22.4,0,0,0,0-44.8Zm0,38.8h-21.3V49.5h21.3a16.4,16.4,0,0,1,0,32.8Z"/><path d="M99.04,44l-29,65h6.6l7.8-17.5h36.2l8,17.5h6.6l-29.7-65ZM87.14,85.5l15.1-34.1,15.6,34.1Z"/><path d="M321.74,43.8l-29,65h6.6l7.8-17.5h36.2l8,17.5h6.6l-29.7-65Zm-11.9,41.6,15.2-34.1,15.6,34.1Z"/></svg>