<svg id="图层_1" data-name="图层 1" xmlns="http://www.w3.org/2000/svg" viewBox="0 0 174.29821 141.40846"><title>LD-logo新</title><path d="M80.2,87.4c-.2,0-.6.2-.6.4a2.56687,2.56687,0,0,0-.5,1.2,36.27135,36.27135,0,0,1-3.4,9,31.60643,31.60643,0,0,1-4.9,7.2,18.87345,18.87345,0,0,1-8.9,5.5,19.73771,19.73771,0,0,1-5.9,1c-7.7.1-15.5,0-23.2,0-.3,0-.6-.1-1-.1V30.9a.53033.53033,0,0,1,.6-.6H45.3V28.6H6.2v1.7H19.6v81.5H6.3v1.6H80.8V88.1A.64357.64357,0,0,0,80.2,87.4Z"/><rect x="95.9" y="6.6" width="2.8" height="128.69999"/><path d="M166,61.3c-.3-1-.5-2-.7-3a41.56449,41.56449,0,0,0-6.2-12.9,37.75446,37.75446,0,0,0-5.8-6.2,45.47753,45.47753,0,0,0-6.4-4.4,43.11431,43.11431,0,0,0-7.9-3.5,38.31648,38.31648,0,0,0-7.2-1.9c-1.9-.3-3.9-.6-5.7-.7-1.3-.1-2.6-.2-3.9-.2-2.1-.1-4.3-.2-6.4-.2-1.3,0-2.7.1-3.9.2s-2.3.1-3.5.2c.2,1.5.2,1.6,1.6,1.6,1.6,0,3.2-.2,4.8-.2a68.86233,68.86233,0,0,1,11.1.6c1.7.4,3.4.6,5.1,1.1a35.57732,35.57732,0,0,1,6.1,2.5,28.53088,28.53088,0,0,1,6.2,4.6,29.43068,29.43068,0,0,1,6.2,9.5,46.6351,46.6351,0,0,1,3,12.1c0,.4.1,1.5.1,1.5a109.79279,109.79279,0,0,1,.2,16.6s-.1.6-.1.8c-.3,2.2-.6,4.4-1,6.6a37.413,37.413,0,0,1-2.6,8c-.8,1.7-1.7,3.4-2.6,5.1a23.69875,23.69875,0,0,1-15.4,11.8,50.84477,50.84477,0,0,1-8.6,1.2c-2.8.2-5.6.1-8.4.1h-4.8c-.5,1.1-.4,1.3.8,1.4a19.41774,19.41774,0,0,0,2.4.2c5.2.1,10.4.2,15.6-.2a58.36674,58.36674,0,0,0,7.3-1.1,36.27122,36.27122,0,0,0,9-3.4,66.80957,66.80957,0,0,0,6.7-4.1,36.64578,36.64578,0,0,0,8.2-8,47.21441,47.21441,0,0,0,4.9-8.4,47.55964,47.55964,0,0,0,2.6-8.9,6.17265,6.17265,0,0,0,.1-.9,61.72862,61.72862,0,0,0-.4-16.7A1.20726,1.20726,0,0,1,166,61.3Z"/></svg>